<svg xmlns="http://www.w3.org/2000/svg" viewBox="0 0 96 96" class="av-svg" role="img" aria-label="Circuit Fox">
  <defs>
    <linearGradient id="g" x1="0" y1="0" x2="1" y2="1">
      <stop offset="0%" stop-color="#fb923c"/>
      <stop offset="100%" stop-color="#fbbf24"/>
    </linearGradient>
    <filter id="soft"><feGaussianBlur stdDeviation="1.2"/></filter>
  </defs>
  <rect width="96" height="96" rx="20" fill="#070b10"/>
  <circle cx="48" cy="48" r="40" fill="#fb923c" opacity=".08" class="av-aura"/>
  
        <path class="av-head" d="M48 22 L72 38 L66 78 L30 78 L24 38 Z" fill="url(#g)"/>
        <path d="M24 38 L12 18 L32 32 Z" fill="#fbbf24"/><path d="M72 38 L84 18 L64 32 Z" fill="#fbbf24"/>
        <ellipse class="av-eye av-eye-l" cx="38" cy="50" rx="4.5" ry="5.5" fill="#1a0a00"/>
        <ellipse class="av-eye av-eye-r" cx="58" cy="50" rx="4.5" ry="5.5" fill="#1a0a00"/>
        <circle cx="39.5" cy="48.5" r="1.4" fill="#fff"/><circle cx="59.5" cy="48.5" r="1.4" fill="#fff"/>
        <path d="M48 54 L44 62 L52 62 Z" fill="#1a0a00"/>
        <path class="av-mouth" d="M42 68 Q48 72 54 68" stroke="#1a0a00" stroke-width="2" fill="none"/>
        <rect x="28" y="42" width="40" height="3" rx="1" fill="#fb923c" opacity=".6" class="av-visor"/>
      
</svg>